<svg width="172" height="49" viewBox="0 0 172 49" fill="none" xmlns="http://www.w3.org/2000/svg">
<path d="M2.37601 33.0266C1.42383 33.5975 0.212891 32.9115 0.212891 31.8014V17.2957C0.212891 16.187 1.42088 15.5009 2.37311 16.0687L14.5036 23.3021C15.4315 23.8554 15.4331 25.1988 14.5065 25.7543L2.37601 33.0266Z" fill="#F5F5F4"/>
<path d="M24.7343 18.9854C25.1336 19.25 25.3737 19.6972 25.3737 20.1763V28.8607C25.3737 29.3389 25.1345 29.7854 24.7363 30.0503L0.852992 45.9339C-0.324624 46.7171 0.229825 48.552 1.64409 48.552H16.374C16.6534 48.552 16.9267 48.4701 17.16 48.3164L36.5788 35.5231C36.98 35.2588 37.2214 34.8106 37.2214 34.3301V14.781C37.2214 14.2968 36.9761 13.8455 36.5697 13.5821L16.8139 0.781668C16.5826 0.631764 16.3128 0.552002 16.0371 0.552002L1.65882 0.552015C0.243329 0.552017 -0.310231 2.38954 0.869712 3.17143L24.7343 18.9854Z" fill="#F5F5F4"/>
<path d="M67.2814 11.412V18.252C67.3014 18.692 67.4114 19.022 67.6114 19.242C67.8314 19.442 68.1614 19.572 68.6014 19.632L68.5114 22.122C66.7714 22.122 65.4414 21.752 64.5214 21.012C62.9614 21.752 61.3514 22.122 59.6914 22.122C56.7114 22.122 55.2214 20.532 55.2214 17.352C55.2214 15.832 55.6214 14.732 56.4214 14.052C57.2214 13.372 58.4714 12.962 60.1714 12.822L64.0414 12.492V11.412C64.0414 10.612 63.8614 10.052 63.5014 9.732C63.1614 9.412 62.6514 9.252 61.9714 9.252C61.3314 9.252 60.6114 9.272 59.8114 9.312C59.0114 9.352 58.1314 9.412 57.1714 9.492L56.2114 9.552L56.0914 7.242C58.3314 6.722 60.3414 6.462 62.1214 6.462C63.9614 6.462 65.2814 6.852 66.0814 7.632C66.8814 8.412 67.2814 9.672 67.2814 11.412ZM64.0414 14.802L60.5614 15.132C59.1814 15.252 58.4914 16.002 58.4914 17.382C58.4914 18.762 59.1014 19.452 60.3214 19.452C61.3614 19.452 62.4214 19.292 63.5014 18.972L64.0414 18.792V14.802Z" fill="#F5F5F4"/>
<path d="M74.6565 21.792H71.3865V6.792H74.6265V8.592C76.3065 7.512 78.0065 6.802 79.7265 6.462V9.732C78.0665 10.052 76.5965 10.492 75.3165 11.052L74.6565 11.322V21.792Z" fill="#F5F5F4"/>
<path d="M87.8364 6.462C88.8364 6.462 90.0864 6.602 91.5864 6.882L92.3364 7.032L92.2164 9.612C91.4164 9.532 90.7264 9.472 90.1464 9.432C89.5664 9.392 89.0864 9.372 88.7064 9.372C87.9464 9.372 87.3164 9.452 86.8164 9.612C86.3364 9.752 85.9464 10.012 85.6464 10.392C85.3664 10.772 85.1664 11.272 85.0464 11.892C84.9264 12.512 84.8664 13.292 84.8664 14.232C84.8664 15.172 84.9164 15.962 85.0164 16.602C85.1364 17.222 85.3364 17.732 85.6164 18.132C85.8964 18.512 86.2864 18.792 86.7864 18.972C87.3064 19.132 87.9564 19.212 88.7364 19.212L92.2464 18.972L92.3364 21.582C90.3364 21.942 88.8164 22.122 87.7764 22.122C86.6364 22.122 85.6664 21.972 84.8664 21.672C84.0864 21.372 83.4464 20.912 82.9464 20.292C82.4664 19.652 82.1164 18.832 81.8964 17.832C81.6764 16.832 81.5664 15.632 81.5664 14.232C81.5664 12.832 81.6864 11.642 81.9264 10.662C82.1664 9.662 82.5364 8.852 83.0364 8.232C83.5364 7.612 84.1864 7.162 84.9864 6.882C85.7864 6.602 86.7364 6.462 87.8364 6.462Z" fill="#F5F5F4"/>
<path d="M98.7678 10.032V21.792H95.4978V0.552002H98.7678V7.572C100.228 6.832 101.598 6.462 102.878 6.462C103.878 6.462 104.708 6.602 105.368 6.882C106.028 7.142 106.558 7.572 106.958 8.172C107.358 8.752 107.638 9.502 107.798 10.422C107.978 11.342 108.068 12.452 108.068 13.752V21.792H104.798V13.842C104.798 13.022 104.758 12.332 104.678 11.772C104.618 11.212 104.488 10.752 104.288 10.392C104.088 10.032 103.808 9.772 103.448 9.612C103.108 9.452 102.668 9.372 102.128 9.372C101.148 9.372 100.188 9.532 99.2478 9.852L98.7678 10.032Z" fill="#F5F5F4"/>
<path d="M120.845 0.552002H124.115V21.792H120.875V21.012C119.415 21.752 118.075 22.122 116.855 22.122C114.895 22.122 113.455 21.532 112.535 20.352C111.635 19.172 111.185 17.192 111.185 14.412C111.185 11.632 111.685 9.612 112.685 8.352C113.705 7.092 115.285 6.462 117.425 6.462C117.785 6.462 118.245 6.492 118.805 6.552C119.385 6.612 120.065 6.712 120.845 6.852V0.552002ZM120.335 18.672L120.845 18.462V9.582C120.245 9.482 119.665 9.412 119.105 9.372C118.565 9.312 118.035 9.282 117.515 9.282C115.495 9.282 114.485 10.962 114.485 14.322C114.485 16.162 114.715 17.442 115.175 18.162C115.655 18.862 116.405 19.212 117.425 19.212C118.445 19.212 119.415 19.032 120.335 18.672Z" fill="#F5F5F4"/>
<path d="M137.166 18.432V6.792H140.406V21.792H137.166V20.862C135.706 21.702 134.356 22.122 133.116 22.122C132.096 22.122 131.246 21.992 130.566 21.732C129.906 21.472 129.376 21.052 128.976 20.472C128.596 19.872 128.326 19.092 128.166 18.132C128.006 17.172 127.926 16.002 127.926 14.622V6.792H131.196V14.652C131.196 15.552 131.226 16.302 131.286 16.902C131.346 17.482 131.466 17.942 131.646 18.282C131.826 18.622 132.086 18.862 132.426 19.002C132.766 19.142 133.206 19.212 133.746 19.212C134.806 19.212 135.796 19.012 136.716 18.612L137.166 18.432Z" fill="#F5F5F4"/>
<path d="M147.635 15.672L149.585 15.462L153.245 21.792H156.935L152.375 13.812L156.695 6.792H153.035L149.495 12.642L147.635 12.822V0.552002H144.365V21.792H147.635V15.672Z" fill="#F5F5F4"/>
<path d="M170.016 19.092L170.856 19.002L170.916 21.432C169.776 21.652 168.706 21.822 167.706 21.942C166.706 22.062 165.756 22.122 164.856 22.122C162.636 22.122 161.036 21.512 160.056 20.292C159.096 19.072 158.616 17.122 158.616 14.442C158.616 9.122 160.786 6.462 165.126 6.462C169.326 6.462 171.426 8.752 171.426 13.332L171.216 15.672H161.916C161.936 16.912 162.206 17.822 162.726 18.402C163.246 18.982 164.216 19.272 165.636 19.272C167.056 19.272 168.516 19.212 170.016 19.092ZM161.886 13.152H168.216C168.216 11.652 167.986 10.612 167.526 10.032C167.066 9.452 166.266 9.162 165.126 9.162C163.986 9.162 163.166 9.472 162.666 10.092C162.166 10.692 161.906 11.712 161.886 13.152Z" fill="#F5F5F4"/>
<path d="M63.1594 46.986L63.2134 48.174C61.9774 48.426 60.8674 48.552 59.8834 48.552C58.8994 48.552 58.1014 48.42 57.4894 48.156C56.8894 47.88 56.4274 47.454 56.1034 46.878C55.7674 46.314 55.5334 45.666 55.4014 44.934C55.2814 44.19 55.2214 43.266 55.2214 42.162C55.2214 41.046 55.2814 40.116 55.4014 39.372C55.5334 38.628 55.7674 37.968 56.1034 37.392C56.4274 36.816 56.8834 36.396 57.4714 36.132C58.0714 35.868 58.8574 35.736 59.8294 35.736C60.3094 35.736 60.8314 35.772 61.3954 35.844C61.9594 35.904 62.5654 36 63.2134 36.132L63.1594 37.302C61.9594 37.086 60.8794 36.978 59.9194 36.978C59.2594 36.978 58.7194 37.074 58.2994 37.266C57.8794 37.446 57.5434 37.746 57.2914 38.166C57.0514 38.574 56.8834 39.108 56.7874 39.768C56.7034 40.428 56.6614 41.232 56.6614 42.18C56.6614 43.128 56.6974 43.89 56.7694 44.466C56.8534 45.042 57.0094 45.558 57.2374 46.014C57.4654 46.482 57.7954 46.818 58.2274 47.022C58.6714 47.214 59.3194 47.31 60.1714 47.31C61.0114 47.31 62.0074 47.202 63.1594 46.986Z" fill="#78716C"/>
<path d="M68.9185 36.942C67.1185 36.942 66.2185 37.62 66.2185 38.976C66.2185 39.348 66.2605 39.66 66.3445 39.912C66.4405 40.152 66.6025 40.362 66.8305 40.542C67.0705 40.71 67.3945 40.854 67.8025 40.974C68.2105 41.094 68.7325 41.226 69.3685 41.37C70.0045 41.514 70.5385 41.67 70.9705 41.838C71.4145 42.006 71.7745 42.216 72.0505 42.468C72.3265 42.72 72.5245 43.026 72.6445 43.386C72.7765 43.746 72.8425 44.184 72.8425 44.7C72.8425 47.256 71.5165 48.534 68.8645 48.534C68.4205 48.534 67.9225 48.504 67.3705 48.444C66.8305 48.396 66.2305 48.324 65.5705 48.228L64.9225 48.138L65.0665 46.986C66.7105 47.202 67.9525 47.31 68.7925 47.31C70.5685 47.31 71.4565 46.476 71.4565 44.808C71.4565 44.472 71.4085 44.19 71.3125 43.962C71.2285 43.722 71.0785 43.524 70.8625 43.368C70.6585 43.2 70.3765 43.062 70.0165 42.954C69.6685 42.834 69.2245 42.72 68.6845 42.612C67.9885 42.468 67.3945 42.306 66.9025 42.126C66.4105 41.946 66.0085 41.724 65.6965 41.46C65.3845 41.184 65.1565 40.854 65.0125 40.47C64.8805 40.086 64.8145 39.618 64.8145 39.066C64.8145 36.834 66.1525 35.718 68.8285 35.718C69.7045 35.718 70.7545 35.808 71.9785 35.988L72.5905 36.078L72.4645 37.248C71.6245 37.152 70.9105 37.08 70.3225 37.032C69.7345 36.972 69.2665 36.942 68.9185 36.942Z" fill="#78716C"/>
<path d="M82.5443 47.166V48.372H74.9483V47.202L78.4223 43.548C78.7223 43.236 78.9743 42.972 79.1783 42.756C79.3943 42.528 79.5803 42.318 79.7363 42.126C79.8923 41.934 80.0303 41.748 80.1503 41.568C80.2703 41.388 80.3843 41.19 80.4923 40.974C80.7083 40.518 80.8163 40.074 80.8163 39.642C80.8163 38.874 80.6063 38.334 80.1863 38.022C79.7783 37.71 79.1243 37.554 78.2243 37.554C77.4683 37.554 76.5983 37.656 75.6143 37.86L75.1463 37.95L75.0383 36.798C76.1783 36.474 77.3543 36.312 78.5663 36.312C79.7903 36.312 80.7083 36.564 81.3203 37.068C81.9323 37.572 82.2383 38.382 82.2383 39.498C82.2383 39.918 82.1903 40.302 82.0943 40.65C82.0103 40.998 81.8663 41.346 81.6623 41.694C81.4703 42.03 81.2183 42.384 80.9063 42.756C80.5943 43.116 80.2103 43.512 79.7543 43.944L76.5863 47.166H82.5443Z" fill="#78716C"/>
<path d="M89.4846 36.492L85.7046 39.012L86.3346 40.056L89.3946 38.04V48.372H90.7806V36.492H89.4846Z" fill="#78716C"/>
<path d="M99.5568 36.492L95.7768 39.012L96.4068 40.056L99.4668 38.04V48.372H100.853V36.492H99.5568Z" fill="#78716C"/>
<path d="M105.345 37.896L105.219 36.798C106.335 36.462 107.547 36.294 108.855 36.294C110.151 36.294 111.081 36.54 111.645 37.032C112.221 37.512 112.509 38.298 112.509 39.39C112.509 39.942 112.437 40.338 112.293 40.578C112.089 40.914 111.897 41.184 111.717 41.388C111.549 41.58 111.291 41.772 110.943 41.964L110.745 42.09C111.093 42.21 111.393 42.348 111.645 42.504C111.909 42.648 112.125 42.828 112.293 43.044C112.461 43.26 112.587 43.524 112.671 43.836C112.755 44.148 112.797 44.526 112.797 44.97C112.797 46.194 112.491 47.1 111.879 47.688C111.267 48.264 110.289 48.552 108.945 48.552C107.913 48.552 106.797 48.432 105.597 48.192L105.039 48.066L105.165 46.932C105.681 47.04 106.221 47.142 106.785 47.238C107.361 47.322 107.919 47.364 108.459 47.364C108.855 47.364 109.227 47.328 109.575 47.256C109.935 47.184 110.247 47.058 110.511 46.878C110.775 46.698 110.985 46.458 111.141 46.158C111.297 45.858 111.375 45.48 111.375 45.024C111.375 43.584 110.559 42.84 108.927 42.792H106.533V41.604H108.927C109.179 41.604 109.431 41.55 109.683 41.442C109.947 41.334 110.181 41.184 110.385 40.992C110.589 40.8 110.757 40.572 110.889 40.308C111.021 40.032 111.087 39.732 111.087 39.408C111.087 38.748 110.901 38.274 110.529 37.986C110.157 37.686 109.533 37.536 108.657 37.536C107.697 37.536 106.749 37.626 105.813 37.806L105.345 37.896Z" fill="#78716C"/>
<path d="M120.866 48.372V35.916H119.48V48.372H120.866Z" fill="#78716C"/>
<path d="M128.464 44.178H125.296V48.372H123.91V35.916H128.464C129.832 35.916 130.834 36.246 131.47 36.906C132.118 37.554 132.442 38.562 132.442 39.93C132.442 42.762 131.116 44.178 128.464 44.178ZM125.296 37.14V42.954H128.446C130.162 42.954 131.02 41.946 131.02 39.93C131.02 38.958 130.816 38.25 130.408 37.806C130 37.362 129.346 37.14 128.446 37.14H125.296Z" fill="#78716C"/>
</svg>
