<svg width="172" height="49" viewBox="0 0 172 49" fill="none" xmlns="http://www.w3.org/2000/svg">
<path d="M2.16312 33.0266C1.21094 33.5975 4.46666e-08 32.9115 4.46666e-08 31.8014V17.2957C4.46666e-08 16.187 1.20799 15.5009 2.16022 16.0687L14.2907 23.3021C15.2186 23.8554 15.2202 25.1988 14.2936 25.7543L2.16312 33.0266Z" fill="#1C1917"/>
<path d="M24.5214 18.9854C24.9207 19.25 25.1609 19.6972 25.1609 20.1763V28.8607C25.1609 29.3389 24.9216 29.7854 24.5234 30.0503L0.640101 45.9339C-0.537515 46.7171 0.0169348 48.552 1.4312 48.552H16.1611C16.4405 48.552 16.7138 48.4701 16.9471 48.3164L36.3659 35.5231C36.7671 35.2588 37.0085 34.8106 37.0085 34.3301V14.781C37.0085 14.2968 36.7632 13.8455 36.3568 13.5821L16.601 0.781668C16.3697 0.631764 16.0999 0.552002 15.8242 0.552002L1.44593 0.552015C0.0304382 0.552017 -0.523122 2.38954 0.656821 3.17143L24.5214 18.9854Z" fill="#1C1917"/>
<path d="M67.0685 11.412V18.252C67.0885 18.692 67.1985 19.022 67.3985 19.242C67.6185 19.442 67.9485 19.572 68.3885 19.632L68.2985 22.122C66.5585 22.122 65.2285 21.752 64.3085 21.012C62.7485 21.752 61.1385 22.122 59.4785 22.122C56.4985 22.122 55.0085 20.532 55.0085 17.352C55.0085 15.832 55.4085 14.732 56.2085 14.052C57.0085 13.372 58.2585 12.962 59.9585 12.822L63.8285 12.492V11.412C63.8285 10.612 63.6485 10.052 63.2885 9.732C62.9485 9.412 62.4385 9.252 61.7585 9.252C61.1185 9.252 60.3985 9.272 59.5985 9.312C58.7985 9.352 57.9185 9.412 56.9585 9.492L55.9985 9.552L55.8785 7.242C58.1185 6.722 60.1285 6.462 61.9085 6.462C63.7485 6.462 65.0685 6.852 65.8685 7.632C66.6685 8.412 67.0685 9.672 67.0685 11.412ZM63.8285 14.802L60.3485 15.132C58.9685 15.252 58.2785 16.002 58.2785 17.382C58.2785 18.762 58.8885 19.452 60.1085 19.452C61.1485 19.452 62.2085 19.292 63.2885 18.972L63.8285 18.792V14.802Z" fill="#1C1917"/>
<path d="M74.4436 21.792H71.1736V6.792H74.4136V8.592C76.0936 7.512 77.7936 6.802 79.5136 6.462V9.732C77.8536 10.052 76.3836 10.492 75.1036 11.052L74.4436 11.322V21.792Z" fill="#1C1917"/>
<path d="M87.6235 6.462C88.6235 6.462 89.8735 6.602 91.3735 6.882L92.1235 7.032L92.0035 9.612C91.2035 9.532 90.5135 9.472 89.9335 9.432C89.3535 9.392 88.8735 9.372 88.4935 9.372C87.7335 9.372 87.1035 9.452 86.6035 9.612C86.1235 9.752 85.7335 10.012 85.4335 10.392C85.1535 10.772 84.9535 11.272 84.8335 11.892C84.7135 12.512 84.6535 13.292 84.6535 14.232C84.6535 15.172 84.7035 15.962 84.8035 16.602C84.9235 17.222 85.1235 17.732 85.4035 18.132C85.6835 18.512 86.0735 18.792 86.5735 18.972C87.0935 19.132 87.7435 19.212 88.5235 19.212L92.0335 18.972L92.1235 21.582C90.1235 21.942 88.6035 22.122 87.5635 22.122C86.4235 22.122 85.4535 21.972 84.6535 21.672C83.8735 21.372 83.2335 20.912 82.7335 20.292C82.2535 19.652 81.9035 18.832 81.6835 17.832C81.4635 16.832 81.3535 15.632 81.3535 14.232C81.3535 12.832 81.4735 11.642 81.7135 10.662C81.9535 9.662 82.3235 8.852 82.8235 8.232C83.3235 7.612 83.9735 7.162 84.7735 6.882C85.5735 6.602 86.5235 6.462 87.6235 6.462Z" fill="#1C1917"/>
<path d="M98.555 10.032V21.792H95.285V0.552002H98.555V7.572C100.015 6.832 101.385 6.462 102.665 6.462C103.665 6.462 104.495 6.602 105.155 6.882C105.815 7.142 106.345 7.572 106.745 8.172C107.145 8.752 107.425 9.502 107.585 10.422C107.765 11.342 107.855 12.452 107.855 13.752V21.792H104.585V13.842C104.585 13.022 104.545 12.332 104.465 11.772C104.405 11.212 104.275 10.752 104.075 10.392C103.875 10.032 103.595 9.772 103.235 9.612C102.895 9.452 102.455 9.372 101.915 9.372C100.935 9.372 99.975 9.532 99.035 9.852L98.555 10.032Z" fill="#1C1917"/>
<path d="M120.632 0.552002H123.902V21.792H120.662V21.012C119.202 21.752 117.862 22.122 116.642 22.122C114.682 22.122 113.242 21.532 112.322 20.352C111.422 19.172 110.972 17.192 110.972 14.412C110.972 11.632 111.472 9.612 112.472 8.352C113.492 7.092 115.072 6.462 117.212 6.462C117.572 6.462 118.032 6.492 118.592 6.552C119.172 6.612 119.852 6.712 120.632 6.852V0.552002ZM120.122 18.672L120.632 18.462V9.582C120.032 9.482 119.452 9.412 118.892 9.372C118.352 9.312 117.822 9.282 117.302 9.282C115.282 9.282 114.272 10.962 114.272 14.322C114.272 16.162 114.502 17.442 114.962 18.162C115.442 18.862 116.192 19.212 117.212 19.212C118.232 19.212 119.202 19.032 120.122 18.672Z" fill="#1C1917"/>
<path d="M136.953 18.432V6.792H140.193V21.792H136.953V20.862C135.493 21.702 134.143 22.122 132.903 22.122C131.883 22.122 131.033 21.992 130.353 21.732C129.693 21.472 129.163 21.052 128.763 20.472C128.383 19.872 128.113 19.092 127.953 18.132C127.793 17.172 127.713 16.002 127.713 14.622V6.792H130.983V14.652C130.983 15.552 131.013 16.302 131.073 16.902C131.133 17.482 131.253 17.942 131.433 18.282C131.613 18.622 131.873 18.862 132.213 19.002C132.553 19.142 132.993 19.212 133.533 19.212C134.593 19.212 135.583 19.012 136.503 18.612L136.953 18.432Z" fill="#1C1917"/>
<path d="M147.422 15.672L149.372 15.462L153.032 21.792H156.722L152.162 13.812L156.482 6.792H152.822L149.282 12.642L147.422 12.822V0.552002H144.152V21.792H147.422V15.672Z" fill="#1C1917"/>
<path d="M169.803 19.092L170.643 19.002L170.703 21.432C169.563 21.652 168.493 21.822 167.493 21.942C166.493 22.062 165.543 22.122 164.643 22.122C162.423 22.122 160.823 21.512 159.843 20.292C158.883 19.072 158.403 17.122 158.403 14.442C158.403 9.122 160.573 6.462 164.913 6.462C169.113 6.462 171.213 8.752 171.213 13.332L171.003 15.672H161.703C161.723 16.912 161.993 17.822 162.513 18.402C163.033 18.982 164.003 19.272 165.423 19.272C166.843 19.272 168.303 19.212 169.803 19.092ZM161.673 13.152H168.003C168.003 11.652 167.773 10.612 167.313 10.032C166.853 9.452 166.053 9.162 164.913 9.162C163.773 9.162 162.953 9.472 162.453 10.092C161.953 10.692 161.693 11.712 161.673 13.152Z" fill="#1C1917"/>
<path d="M62.9465 46.986L63.0005 48.174C61.7645 48.426 60.6545 48.552 59.6705 48.552C58.6865 48.552 57.8885 48.42 57.2765 48.156C56.6765 47.88 56.2145 47.454 55.8905 46.878C55.5545 46.314 55.3205 45.666 55.1885 44.934C55.0685 44.19 55.0085 43.266 55.0085 42.162C55.0085 41.046 55.0685 40.116 55.1885 39.372C55.3205 38.628 55.5545 37.968 55.8905 37.392C56.2145 36.816 56.6705 36.396 57.2585 36.132C57.8585 35.868 58.6445 35.736 59.6165 35.736C60.0965 35.736 60.6185 35.772 61.1825 35.844C61.7465 35.904 62.3525 36 63.0005 36.132L62.9465 37.302C61.7465 37.086 60.6665 36.978 59.7065 36.978C59.0465 36.978 58.5065 37.074 58.0865 37.266C57.6665 37.446 57.3305 37.746 57.0785 38.166C56.8385 38.574 56.6705 39.108 56.5745 39.768C56.4905 40.428 56.4485 41.232 56.4485 42.18C56.4485 43.128 56.4845 43.89 56.5565 44.466C56.6405 45.042 56.7965 45.558 57.0245 46.014C57.2525 46.482 57.5825 46.818 58.0145 47.022C58.4585 47.214 59.1065 47.31 59.9585 47.31C60.7985 47.31 61.7945 47.202 62.9465 46.986Z" fill="#78716C"/>
<path d="M68.7056 36.942C66.9056 36.942 66.0056 37.62 66.0056 38.976C66.0056 39.348 66.0476 39.66 66.1316 39.912C66.2276 40.152 66.3896 40.362 66.6176 40.542C66.8576 40.71 67.1816 40.854 67.5896 40.974C67.9976 41.094 68.5196 41.226 69.1556 41.37C69.7916 41.514 70.3256 41.67 70.7576 41.838C71.2016 42.006 71.5616 42.216 71.8376 42.468C72.1136 42.72 72.3116 43.026 72.4316 43.386C72.5636 43.746 72.6296 44.184 72.6296 44.7C72.6296 47.256 71.3036 48.534 68.6516 48.534C68.2076 48.534 67.7096 48.504 67.1576 48.444C66.6176 48.396 66.0176 48.324 65.3576 48.228L64.7096 48.138L64.8536 46.986C66.4976 47.202 67.7396 47.31 68.5796 47.31C70.3556 47.31 71.2436 46.476 71.2436 44.808C71.2436 44.472 71.1956 44.19 71.0996 43.962C71.0156 43.722 70.8656 43.524 70.6496 43.368C70.4456 43.2 70.1636 43.062 69.8036 42.954C69.4556 42.834 69.0116 42.72 68.4716 42.612C67.7756 42.468 67.1816 42.306 66.6896 42.126C66.1976 41.946 65.7956 41.724 65.4836 41.46C65.1716 41.184 64.9436 40.854 64.7996 40.47C64.6676 40.086 64.6016 39.618 64.6016 39.066C64.6016 36.834 65.9396 35.718 68.6156 35.718C69.4916 35.718 70.5416 35.808 71.7656 35.988L72.3776 36.078L72.2516 37.248C71.4116 37.152 70.6976 37.08 70.1096 37.032C69.5216 36.972 69.0536 36.942 68.7056 36.942Z" fill="#78716C"/>
<path d="M82.3314 47.166V48.372H74.7354V47.202L78.2094 43.548C78.5094 43.236 78.7614 42.972 78.9654 42.756C79.1814 42.528 79.3674 42.318 79.5234 42.126C79.6794 41.934 79.8174 41.748 79.9374 41.568C80.0574 41.388 80.1714 41.19 80.2794 40.974C80.4954 40.518 80.6034 40.074 80.6034 39.642C80.6034 38.874 80.3934 38.334 79.9734 38.022C79.5654 37.71 78.9114 37.554 78.0114 37.554C77.2554 37.554 76.3854 37.656 75.4014 37.86L74.9334 37.95L74.8254 36.798C75.9654 36.474 77.1414 36.312 78.3534 36.312C79.5774 36.312 80.4954 36.564 81.1074 37.068C81.7194 37.572 82.0254 38.382 82.0254 39.498C82.0254 39.918 81.9774 40.302 81.8814 40.65C81.7974 40.998 81.6534 41.346 81.4494 41.694C81.2574 42.03 81.0054 42.384 80.6934 42.756C80.3814 43.116 79.9974 43.512 79.5414 43.944L76.3734 47.166H82.3314Z" fill="#78716C"/>
<path d="M89.2717 36.492L85.4917 39.012L86.1217 40.056L89.1817 38.04V48.372H90.5677V36.492H89.2717Z" fill="#78716C"/>
<path d="M99.344 36.492L95.5639 39.012L96.194 40.056L99.254 38.04V48.372H100.64V36.492H99.344Z" fill="#78716C"/>
<path d="M105.132 37.896L105.006 36.798C106.122 36.462 107.334 36.294 108.642 36.294C109.938 36.294 110.868 36.54 111.432 37.032C112.008 37.512 112.296 38.298 112.296 39.39C112.296 39.942 112.224 40.338 112.08 40.578C111.876 40.914 111.684 41.184 111.504 41.388C111.336 41.58 111.078 41.772 110.73 41.964L110.532 42.09C110.88 42.21 111.18 42.348 111.432 42.504C111.696 42.648 111.912 42.828 112.08 43.044C112.248 43.26 112.374 43.524 112.458 43.836C112.542 44.148 112.584 44.526 112.584 44.97C112.584 46.194 112.278 47.1 111.666 47.688C111.054 48.264 110.076 48.552 108.732 48.552C107.7 48.552 106.584 48.432 105.384 48.192L104.826 48.066L104.952 46.932C105.468 47.04 106.008 47.142 106.572 47.238C107.148 47.322 107.706 47.364 108.246 47.364C108.642 47.364 109.014 47.328 109.362 47.256C109.722 47.184 110.034 47.058 110.298 46.878C110.562 46.698 110.772 46.458 110.928 46.158C111.084 45.858 111.162 45.48 111.162 45.024C111.162 43.584 110.346 42.84 108.714 42.792H106.32V41.604H108.714C108.966 41.604 109.218 41.55 109.47 41.442C109.734 41.334 109.968 41.184 110.172 40.992C110.376 40.8 110.544 40.572 110.676 40.308C110.808 40.032 110.874 39.732 110.874 39.408C110.874 38.748 110.688 38.274 110.316 37.986C109.944 37.686 109.32 37.536 108.444 37.536C107.484 37.536 106.536 37.626 105.6 37.806L105.132 37.896Z" fill="#78716C"/>
<path d="M120.654 48.372V35.916H119.268V48.372H120.654Z" fill="#78716C"/>
<path d="M128.251 44.178H125.083V48.372H123.697V35.916H128.251C129.619 35.916 130.621 36.246 131.257 36.906C131.905 37.554 132.229 38.562 132.229 39.93C132.229 42.762 130.903 44.178 128.251 44.178ZM125.083 37.14V42.954H128.233C129.949 42.954 130.807 41.946 130.807 39.93C130.807 38.958 130.603 38.25 130.195 37.806C129.787 37.362 129.133 37.14 128.233 37.14H125.083Z" fill="#78716C"/>
</svg>
